<svg width="20" height="20" viewBox="0 0 20 20" fill="none" xmlns="http://www.w3.org/2000/svg">
<path d="M14.4701 0.862818C14.3208 0.713579 14.1437 0.595196 13.9487 0.514428C13.7537 0.43366 13.5447 0.39209 13.3336 0.39209C13.1226 0.39209 12.9136 0.43366 12.7186 0.514428C12.5236 0.595196 12.3464 0.713579 12.1972 0.862818L4.31864 8.74282C4.31864 8.74282 4.38864 8.67282 4.31435 8.74853L4.19721 8.86282C3.57007 9.49139 3.56864 10.51 4.19721 11.1371L12.1972 19.1371C12.5019 19.421 12.9048 19.5755 13.3212 19.5682C13.7375 19.5608 14.1348 19.3922 14.4293 19.0977C14.7237 18.8033 14.8924 18.406 14.8997 17.9897C14.9071 17.5733 14.7525 17.1703 14.4686 16.8657L7.60721 9.99996L14.4715 3.13568C15.1001 2.50853 15.1001 1.49139 14.4715 0.864247L14.4701 0.862818Z" fill="white"/>
</svg>
