<svg width="20" height="20" viewBox="0 0 20 20" fill="none" xmlns="http://www.w3.org/2000/svg">
<path d="M5.53004 0.862935C6.15861 0.235792 7.17575 0.235792 7.80289 0.862935L15.6815 8.74151C15.6815 8.74151 15.6115 8.67151 15.6858 8.74722L15.8029 8.86151C16.43 9.49008 16.4315 10.5086 15.8029 11.1358L7.80289 19.1358C7.49823 19.4197 7.09528 19.5742 6.67892 19.5669C6.26256 19.5595 5.8653 19.3909 5.57085 19.0964C5.27639 18.802 5.10772 18.4047 5.10038 17.9883C5.09303 17.572 5.24758 17.169 5.53147 16.8644L12.3929 10.0001L5.52861 3.13579C5.22764 2.83445 5.05859 2.42597 5.05859 2.00008C5.05859 1.57418 5.22764 1.1657 5.52861 0.864364L5.53004 0.862935Z" fill="white"/>
</svg>
