<svg width="18" height="21" viewBox="0 0 18 21" fill="none" xmlns="http://www.w3.org/2000/svg">
<g clip-path="url(#clip0_5_302)">
<path d="M13.8209 14.2097C12.7711 15.1374 11.4135 15.6409 10.0126 15.622C6.78436 15.622 4.41362 13.2513 4.41362 9.99783C4.41362 6.74437 6.7087 4.47451 10.0126 4.47451C11.4166 4.45552 12.7794 4.94864 13.8462 5.86164L14.5523 6.46694L17.6797 3.33958L16.8979 2.60818C15.0062 0.918157 12.549 5.73397e-05 10.0126 0.0356663C4.21185 0.0356663 0 4.2223 0 9.97261C0 15.7229 4.31274 20.0357 10.0126 20.0357C12.573 20.07 15.0513 19.1327 16.9483 17.4127L17.7049 16.7065L14.5271 13.5792L13.8209 14.2097Z" fill="white"/>
<path d="M9.86119 13.3774C11.7137 13.3774 13.2155 11.8756 13.2155 10.0231C13.2155 8.17049 11.7137 6.6687 9.86119 6.6687C8.00863 6.6687 6.50684 8.17049 6.50684 10.0231C6.50684 11.8756 8.00863 13.3774 9.86119 13.3774Z" fill="white"/>
</g>
<defs>
<clipPath id="clip0_5_302">
<rect width="17.7049" height="20" fill="white" transform="translate(0 0.0356445)"/>
</clipPath>
</defs>
</svg>
