<svg width="20" height="21" viewBox="0 0 20 21" fill="none" xmlns="http://www.w3.org/2000/svg">
<g clip-path="url(#clip0_5_298)">
<path d="M19.9806 5.9157C19.9337 4.85302 19.7619 4.12244 19.5157 3.48938C19.2617 2.81741 18.871 2.21579 18.3591 1.71566C17.859 1.20775 17.2534 0.813079 16.5892 0.563091C15.9525 0.316919 15.2258 0.145071 14.1631 0.0982178C13.0925 0.0473961 12.7526 0.0356445 10.0372 0.0356445C7.32185 0.0356445 6.98197 0.0473961 5.91532 0.0942497C4.85265 0.141103 4.12207 0.313103 3.48916 0.559123C2.81704 0.813079 2.21542 1.20378 1.71529 1.71566C1.20738 2.21579 0.812864 2.82138 0.562724 3.48557C0.316552 4.12244 0.144705 4.84905 0.0978515 5.91173C0.0470299 6.98234 0.0352783 7.32222 0.0352783 10.0376C0.0352783 12.753 0.0470299 13.0929 0.0938834 14.1595C0.140737 15.2222 0.312737 15.9528 0.558909 16.5858C0.812864 17.2578 1.20738 17.8594 1.71529 18.3595C2.21542 18.8674 2.82101 19.2621 3.4852 19.5121C4.12207 19.7583 4.84868 19.9301 5.91151 19.977C6.978 20.024 7.31803 20.0356 10.0334 20.0356C12.7488 20.0356 13.0887 20.024 14.1553 19.977C15.218 19.9301 15.9486 19.7583 16.5815 19.5121C17.9256 18.9924 18.9882 17.9298 19.5079 16.5858C19.7539 15.9489 19.9259 15.2222 19.9728 14.1595C20.0196 13.0929 20.0314 12.753 20.0314 10.0376C20.0314 7.32222 20.0274 6.98234 19.9806 5.9157ZM18.1795 14.0814C18.1365 15.0581 17.9724 15.5856 17.8357 15.9372C17.4996 16.8085 16.8081 17.5 15.9368 17.8361C15.5852 17.9728 15.0539 18.1369 14.081 18.1798C13.0261 18.2268 12.7097 18.2384 10.0412 18.2384C7.37267 18.2384 7.05232 18.2268 6.00125 18.1798C5.0245 18.1369 4.49705 17.9728 4.14542 17.8361C3.71183 17.6758 3.31716 17.4219 2.99682 17.0898C2.66472 16.7654 2.41077 16.3747 2.25052 15.9412C2.11378 15.5895 1.94971 15.0581 1.90683 14.0853C1.85982 13.0304 1.84822 12.7139 1.84822 10.0454C1.84822 7.37686 1.85982 7.05652 1.90683 6.00559C1.94971 5.02884 2.11378 4.50139 2.25052 4.14976C2.41077 3.71602 2.66472 3.3215 3.00079 3.00101C3.32495 2.66891 3.71565 2.41495 4.14939 2.25486C4.50102 2.11811 5.03243 1.95405 6.00522 1.91101C7.06011 1.86416 7.37664 1.85241 10.045 1.85241C12.7175 1.85241 13.0339 1.86416 14.0849 1.91101C15.0617 1.95405 15.5891 2.11811 15.9408 2.25486C16.3744 2.41495 16.769 2.66891 17.0894 3.00101C17.4215 3.32532 17.6754 3.71602 17.8357 4.14976C17.9724 4.50139 18.1365 5.03265 18.1795 6.00559C18.2264 7.06048 18.2381 7.37686 18.2381 10.0454C18.2381 12.7139 18.2264 13.0265 18.1795 14.0814Z" fill="white"/>
<path d="M10.0371 4.8999C7.20074 4.8999 4.89941 7.20107 4.89941 10.0376C4.89941 12.8742 7.20074 15.1753 10.0371 15.1753C12.8737 15.1753 15.1749 12.8742 15.1749 10.0376C15.1749 7.20107 12.8737 4.8999 10.0371 4.8999ZM10.0371 13.3703C8.19702 13.3703 6.70442 11.8779 6.70442 10.0376C6.70442 8.19736 8.19702 6.70491 10.0371 6.70491C11.8774 6.70491 13.3698 8.19736 13.3698 10.0376C13.3698 11.8779 11.8774 13.3703 10.0371 13.3703Z" fill="white"/>
<path d="M16.5775 4.69674C16.5775 5.3591 16.0404 5.89617 15.3779 5.89617C14.7155 5.89617 14.1785 5.3591 14.1785 4.69674C14.1785 4.03423 14.7155 3.49731 15.3779 3.49731C16.0404 3.49731 16.5775 4.03423 16.5775 4.69674Z" fill="white"/>
</g>
<defs>
<clipPath id="clip0_5_298">
<rect width="20" height="20" fill="white" transform="translate(0 0.0356445)"/>
</clipPath>
</defs>
</svg>
