<svg width="20" height="21" viewBox="0 0 20 21" fill="none" xmlns="http://www.w3.org/2000/svg">
<g clip-path="url(#clip0_5_294)">
<path d="M19.9951 20.0357V20.0349H20.0001V12.6999C20.0001 9.11158 19.2276 6.34741 15.0326 6.34741C13.0159 6.34741 11.6626 7.45408 11.1101 8.50325H11.0517V6.68241H7.07422V20.0349H11.2159V13.4232C11.2159 11.6824 11.5459 9.99908 13.7017 9.99908C15.8259 9.99908 15.8576 11.9857 15.8576 13.5349V20.0357H19.9951Z" fill="white"/>
<path d="M0.3302 6.68311H4.47687V20.0356H0.3302V6.68311Z" fill="white"/>
<path d="M2.40167 0.0356445C1.07583 0.0356445 0 1.11148 0 2.43731C0 3.76314 1.07583 4.86148 2.40167 4.86148C3.7275 4.86148 4.80333 3.76314 4.80333 2.43731C4.8025 1.11148 3.72667 0.0356445 2.40167 0.0356445V0.0356445Z" fill="white"/>
</g>
<defs>
<clipPath id="clip0_5_294">
<rect width="20" height="20" fill="white" transform="translate(0 0.0356445)"/>
</clipPath>
</defs>
</svg>
