<svg width="20" height="17" viewBox="0 0 20 17" fill="none" xmlns="http://www.w3.org/2000/svg">
<path d="M20 1.95939C19.2563 2.28564 18.4637 2.50189 17.6375 2.60689C18.4875 2.09939 19.1363 1.30189 19.4412 0.340644C18.6488 0.813144 17.7738 1.14689 16.8412 1.33314C16.0887 0.531895 15.0162 0.0356445 13.8462 0.0356445C11.5763 0.0356445 9.74875 1.87814 9.74875 4.13689C9.74875 4.46189 9.77625 4.77439 9.84375 5.07189C6.435 4.90564 3.41875 3.27189 1.3925 0.783145C1.03875 1.39689 0.83125 2.09939 0.83125 2.85564C0.83125 4.27564 1.5625 5.53439 2.6525 6.26314C1.99375 6.25064 1.3475 6.05939 0.8 5.75814C0.8 5.77064 0.8 5.78689 0.8 5.80314C0.8 7.79564 2.22125 9.45064 4.085 9.83189C3.75125 9.92314 3.3875 9.96689 3.01 9.96689C2.7475 9.96689 2.4825 9.95189 2.23375 9.89689C2.765 11.5206 4.2725 12.7144 6.065 12.7531C4.67 13.8444 2.89875 14.5019 0.98125 14.5019C0.645 14.5019 0.3225 14.4869 0 14.4456C1.81625 15.6169 3.96875 16.2856 6.29 16.2856C13.835 16.2856 17.96 10.0356 17.96 4.61814C17.96 4.43689 17.9538 4.26189 17.945 4.08814C18.7588 3.51064 19.4425 2.78939 20 1.95939Z" fill="white"/>
</svg>
