<svg width="25" height="26" viewBox="0 0 25 26" fill="none" xmlns="http://www.w3.org/2000/svg">
<g clip-path="url(#clip0_5_285)">
<path d="M14.9465 2.42139V7.91767C14.9465 8.39234 14.9836 8.74093 15.058 8.96401C15.1789 9.30847 15.4533 9.4802 15.881 9.4802C16.3458 9.4802 16.8249 9.19257 17.3177 8.61542V9.38267H18.5874V2.42139H17.318V7.73637C17.0389 8.13689 16.7741 8.33632 16.5228 8.33632C16.3554 8.33632 16.2577 8.23438 16.2299 8.02948C16.2206 8.01108 16.2159 7.84791 16.2159 7.54134V2.42139H14.9465Z" fill="white"/>
<path d="M12.0446 9.48026C12.6863 9.48026 13.1792 9.24317 13.5233 8.76904C13.7838 8.42508 13.914 7.87598 13.914 7.12275V4.68143C13.914 3.93753 13.7838 3.39364 13.5233 3.04941C13.1792 2.57474 12.6863 2.33765 12.0446 2.33765C11.4213 2.33765 10.9331 2.57474 10.5796 3.04941C10.3192 3.39391 10.189 3.9378 10.189 4.68143V7.12275C10.189 7.86718 10.3192 8.41605 10.5796 8.76904C10.9329 9.24317 11.4213 9.48026 12.0446 9.48026ZM11.4446 4.43011C11.4446 3.78864 11.6446 3.46784 12.0446 3.46784C12.4443 3.46784 12.6445 3.78868 12.6445 4.43011V7.35983C12.6445 8.01118 12.4443 8.33643 12.0446 8.33643C11.6446 8.33643 11.4446 8.01118 11.4446 7.35983V4.43011Z" fill="white"/>
<path d="M8.4873 9.38274V5.60223L10.1753 0.0356445H8.75236L7.80382 3.70488L6.81296 0.0356445H5.33423C5.59466 0.817206 5.89683 1.68692 6.24102 2.64426C6.67808 3.92824 6.96158 4.91385 7.09206 5.60227V9.38251H8.48726V9.38274H8.4873Z" fill="white"/>
<path d="M21.51 11.573C21.096 11.2013 20.6194 10.9829 20.0802 10.9173C18.3688 10.7316 15.7879 10.6382 12.3377 10.6382C8.88713 10.6382 6.31092 10.7313 4.60888 10.9173C4.06001 10.9827 3.58121 11.2013 3.17189 11.573C2.76257 11.9458 2.49285 12.4056 2.36264 12.9545C2.12061 14.0335 2 15.6606 2 17.8373C2 20.0508 2.12088 21.6782 2.36264 22.7202C2.48347 23.2685 2.75077 23.7289 3.16475 24.1011C3.57847 24.4733 4.05507 24.6871 4.59456 24.7431C6.30572 24.9381 8.88654 25.0357 12.3374 25.0357C15.7879 25.0357 18.3688 24.9381 20.0799 24.7431C20.6192 24.6871 21.0936 24.4733 21.5029 24.1011C21.9119 23.7289 22.1817 23.2685 22.3122 22.7202C22.5539 21.6411 22.6748 20.0135 22.6748 17.8373C22.6748 15.6237 22.5539 13.9964 22.3122 12.9545C22.191 12.4056 21.9237 11.9458 21.51 11.573ZM7.90115 14.3632H6.40842V22.3013H5.01344V14.3632H3.54876V13.052H7.90147V14.3632H7.90115ZM11.6677 22.3013H10.426V21.5475C9.92378 22.1148 9.44942 22.3988 9.00298 22.3988C8.57499 22.3988 8.30549 22.2266 8.19372 21.8826C8.11926 21.6593 8.08218 21.3204 8.08218 20.864V15.4092H9.32387V20.4877C9.32387 20.7852 9.32854 20.9481 9.33788 20.9759C9.36588 21.1709 9.46342 21.2684 9.63098 21.2684C9.88208 21.2684 10.1472 21.0734 10.4263 20.6825V15.4092H11.6679V22.3013H11.6677ZM16.411 20.2366C16.411 20.9157 16.3692 21.3805 16.2854 21.6316C16.1272 22.1428 15.7972 22.3988 15.2948 22.3988C14.8485 22.3988 14.416 22.1428 13.9974 21.6316V22.3013H12.7557V13.052H13.9974V16.0792C14.3971 15.5773 14.8298 15.326 15.2948 15.326C15.797 15.326 16.1272 15.5864 16.2854 16.1069C16.3692 16.349 16.411 16.8093 16.411 17.4884V20.2366ZM21.1263 19.0927H18.6292V20.3064C18.6292 20.9483 18.8429 21.2686 19.2709 21.2686C19.5777 21.2686 19.7637 21.1014 19.8288 20.7668C19.8472 20.6736 19.8568 20.3901 19.8568 19.9155H21.1263V20.097C21.1263 20.553 21.1169 20.8223 21.0982 20.9063C21.0702 21.1577 20.9727 21.4082 20.8054 21.6595C20.4706 22.1521 19.9684 22.3991 19.2987 22.3991C18.657 22.3991 18.1545 22.162 17.7919 21.6873C17.5222 21.3434 17.3873 20.8044 17.3873 20.0693V17.6557C17.3873 16.9212 17.5175 16.3817 17.7779 16.0372C18.1405 15.563 18.638 15.3259 19.2707 15.3259C19.8937 15.3259 20.3868 15.563 20.7494 16.0372C21.0005 16.3817 21.126 16.9211 21.126 17.6557V19.0927H21.1263Z" fill="white"/>
<path d="M19.2568 16.4556C18.8382 16.4556 18.6292 16.7721 18.6292 17.4044V18.0465H19.8848V17.4044C19.8845 16.7723 19.6755 16.4556 19.2568 16.4556Z" fill="white"/>
<path d="M14.6254 16.4556C14.4114 16.4556 14.202 16.558 13.9977 16.763V20.9618C14.2021 21.1667 14.4114 21.2686 14.6254 21.2686C14.988 21.2686 15.1696 20.9574 15.1696 20.3341V17.3907C15.1693 16.7673 14.988 16.4556 14.6254 16.4556Z" fill="white"/>
</g>
<defs>
<clipPath id="clip0_5_285">
<rect width="25" height="25" fill="white" transform="translate(0 0.0356445)"/>
</clipPath>
</defs>
</svg>
