<svg width="250" height="41" viewBox="0 0 250 41" fill="none" xmlns="http://www.w3.org/2000/svg">
<g clip-path="url(#clip0_5_309)">
<path d="M249.47 0.571289H125.019V39.4641H249.47V0.571289Z" stroke="white" stroke-width="3" stroke-miterlimit="10"/>
<path d="M125.019 0.571289H0.567993V39.4641H125.019V0.571289Z" fill="white" stroke="white" stroke-width="3" stroke-miterlimit="10"/>
<path d="M17.3406 11.5042H24.2692C25.3672 11.5042 26.3138 11.6946 27.1467 12.0755C27.9797 12.4565 28.6233 12.9898 29.0398 13.6373C29.4941 14.323 29.7213 15.0468 29.7213 15.8848C29.7213 16.761 29.532 17.4466 29.1912 18.0561C28.8126 18.6275 28.3204 19.1227 27.6389 19.5036V19.6179C28.5097 19.8846 29.2291 20.4179 29.8349 21.1416C30.4407 21.8654 30.7057 22.7415 30.7057 23.8081C30.7057 24.7986 30.4407 25.7128 29.9485 26.4746C29.4563 27.2365 28.7369 27.846 27.7904 28.265C26.8817 28.684 25.7837 28.9126 24.5343 28.9126H17.3406V11.5042ZM24.3828 18.5894C26.0487 18.5894 26.8817 17.8657 26.8817 16.38C26.8817 14.9325 26.0487 14.2087 24.3828 14.2087H20.4452V18.5894H24.3828ZM25.1022 26.0937C25.9352 26.0937 26.5788 25.9032 27.0331 25.4842C27.5253 25.0652 27.7525 24.4938 27.7525 23.732C27.7525 22.9701 27.5253 22.3606 27.0331 21.9416C26.5409 21.5226 25.8973 21.3321 25.1022 21.3321H20.4452V26.0937H25.1022Z" fill="black"/>
<path d="M35.7039 11.5042H41.686C43.0111 11.5042 44.147 11.7327 45.1314 12.1898C46.1158 12.6469 46.873 13.2945 47.4031 14.1706C47.9331 15.0087 48.1982 15.9991 48.1982 17.1419C48.1982 18.2466 47.9331 19.1989 47.4409 19.9989C46.9487 20.7988 46.1915 21.4845 45.2071 22.0559V22.1701L49.069 28.8364H45.6236L42.1403 22.7034H38.7706V28.8364H35.7039V11.5042ZM41.9132 19.9989C42.8976 19.9989 43.6927 19.7322 44.2606 19.237C44.8285 18.7418 45.1314 18.018 45.1314 17.1038C45.1314 16.1896 44.8664 15.5039 44.2984 14.9706C43.7305 14.4754 42.9354 14.2087 41.951 14.2087H38.8085V19.9608H41.9132V19.9989Z" fill="black"/>
<path d="M72.9972 11.5042H76.3669L83.4849 23.5796L83.712 23.9605V11.5042H86.7788V28.8364H83.4091L76.2911 16.761L76.064 16.3419V28.7983H72.9972V11.5042Z" fill="black"/>
<path d="M92.6093 11.5042H98.1749C100.03 11.5042 101.658 11.847 103.021 12.5707C104.384 13.2564 105.444 14.2849 106.202 15.5801C106.959 16.8752 107.3 18.437 107.3 20.1893C107.3 21.9416 106.921 23.5034 106.202 24.7986C105.482 26.0937 104.422 27.1222 103.021 27.8079C101.658 28.4936 100.03 28.8745 98.1749 28.8745H92.6093V11.5042ZM98.0613 26.0937C99.9923 26.0937 101.507 25.5985 102.567 24.6081C103.627 23.6177 104.195 22.1321 104.195 20.1512C104.195 18.1704 103.665 16.7229 102.567 15.6944C101.507 14.704 99.9923 14.2087 98.0613 14.2087H95.676V26.0937H98.0613Z" fill="black"/>
<path d="M146.221 11.2754H149.137L155.498 28.6076H152.279L151.181 25.4459H144.177L143.117 28.6076H139.861L146.221 11.2754ZM150.235 22.7794L148.001 16.2275L147.66 15.3132L147.357 16.2275L145.086 22.7794H150.235Z" fill="white"/>
<path d="M59.1399 11.6565H62.0553L68.416 28.9887H65.1978L64.0998 25.827H57.0954L56.0353 28.9887H52.7792L59.1399 11.6565ZM63.1533 23.1605L60.9194 16.6086L60.5787 15.6943L60.2758 16.6086L58.0041 23.1605H63.1533Z" fill="black"/>
<path d="M162.616 27.7316C161.29 26.9697 160.23 25.9412 159.435 24.5698C158.64 23.1985 158.261 21.6748 158.261 19.9225C158.261 18.1702 158.64 16.6084 159.435 15.2752C160.23 13.9038 161.253 12.8753 162.616 12.1135C163.941 11.3897 165.417 11.0088 167.008 11.0088C168.371 11.0088 169.62 11.2373 170.718 11.7326C171.816 12.2278 172.687 12.9134 173.406 13.7896C174.088 14.6657 174.58 15.6942 174.807 16.837L174.693 17.0275L171.816 17.256C171.513 16.1513 170.907 15.3133 170.074 14.7038C169.203 14.0943 168.181 13.7896 166.932 13.7896C165.834 13.7896 164.849 14.0562 163.979 14.5514C163.146 15.0847 162.502 15.8085 162.048 16.7227C161.593 17.6369 161.366 18.7035 161.366 19.9225C161.366 21.1415 161.593 22.17 162.048 23.1223C162.502 24.0365 163.146 24.7984 164.016 25.2936C164.849 25.8269 165.834 26.0555 166.97 26.0555C168.181 26.0555 169.203 25.7507 170.036 25.1412C170.869 24.5318 171.437 23.6937 171.778 22.589L174.618 22.8176L174.731 23.008C174.277 24.8365 173.368 26.2459 172.005 27.2744C170.642 28.3029 168.938 28.8362 166.932 28.8362C165.417 28.8362 163.979 28.4934 162.616 27.7316Z" fill="white"/>
<path d="M182.682 13.98H178.328V11.2754H190.103V13.98H185.749V28.6076H182.682V13.98Z" fill="white"/>
<path d="M195.063 11.2754H198.13V28.6076H195.063V11.2754Z" fill="white"/>
<path d="M202.635 11.2754H205.967L209.753 23.008L210.169 24.1889L210.586 23.008L214.372 11.2754H217.704L211.835 28.6076H208.504L202.635 11.2754Z" fill="white"/>
<path d="M222.21 11.2754H233.076V13.98H225.276V18.5511H232.432V21.2938H225.276V25.865H233.341V28.5695H222.21V11.2754Z" fill="white"/>
</g>
<defs>
<clipPath id="clip0_5_309">
<rect width="250" height="40.0356" fill="white"/>
</clipPath>
</defs>
</svg>
