<svg width="253" height="43" viewBox="0 0 253 43" fill="none" xmlns="http://www.w3.org/2000/svg">
<path d="M250.902 2H126.451V40.8928H250.902V2Z" stroke="#020203" stroke-width="3" stroke-miterlimit="10"/>
<path d="M126.451 2H2V40.8928H126.451V2Z" fill="#020203" stroke="#020203" stroke-width="3" stroke-miterlimit="10"/>
<path d="M18.7726 12.9326H25.7012C26.7992 12.9326 27.7458 13.1231 28.5787 13.504C29.4117 13.8849 30.0553 14.4182 30.4718 15.0658C30.9261 15.7515 31.1533 16.4753 31.1533 17.3133C31.1533 18.1894 30.964 18.8751 30.6233 19.4846C30.2446 20.056 29.7524 20.5512 29.0709 20.9321V21.0464C29.9417 21.313 30.6611 21.8463 31.2669 22.5701C31.8727 23.2939 32.1377 24.17 32.1377 25.2366C32.1377 26.227 31.8727 27.1412 31.3805 27.9031C30.8883 28.665 30.1689 29.2744 29.2224 29.6935C28.3137 30.1125 27.2157 30.341 25.9663 30.341H18.7726V12.9326ZM25.8148 20.0179C27.4807 20.0179 28.3137 19.2941 28.3137 17.8085C28.3137 16.361 27.4807 15.6372 25.8148 15.6372H21.8772V20.0179H25.8148ZM26.5342 27.5222C27.3672 27.5222 28.0108 27.3317 28.4651 26.9127C28.9573 26.4937 29.1845 25.9223 29.1845 25.1604C29.1845 24.3986 28.9573 23.7891 28.4651 23.3701C27.9729 22.951 27.3293 22.7606 26.5342 22.7606H21.8772V27.5222H26.5342Z" fill="white"/>
<path d="M37.1359 12.9326H43.118C44.4431 12.9326 45.579 13.1612 46.5634 13.6183C47.5478 14.0754 48.305 14.723 48.8351 15.5991C49.3652 16.4372 49.6302 17.4276 49.6302 18.5704C49.6302 19.6751 49.3652 20.6274 48.873 21.4273C48.3808 22.2273 47.6235 22.9129 46.6391 23.4843V23.5986L50.501 30.2649H47.0556L43.5723 24.1319H40.2027V30.2649H37.1359V12.9326ZM43.3452 21.4273C44.3296 21.4273 45.1247 21.1607 45.6926 20.6655C46.2605 20.1703 46.5634 19.4465 46.5634 18.5323C46.5634 17.618 46.2984 16.9324 45.7304 16.3991C45.1625 15.9039 44.3674 15.6372 43.383 15.6372H40.2405V21.3892H43.3452V21.4273Z" fill="white"/>
<path d="M74.4292 12.9326H77.7989L84.9169 25.0081L85.144 25.389V12.9326H88.2108V30.2649H84.8411L77.7232 18.1894L77.496 17.7704V30.2268H74.4292V12.9326Z" fill="white"/>
<path d="M94.0413 12.9326H99.6069C101.462 12.9326 103.09 13.2755 104.453 13.9992C105.816 14.6849 106.876 15.7134 107.634 17.0086C108.391 18.3037 108.732 19.8655 108.732 21.6178C108.732 23.3701 108.353 24.9319 107.634 26.227C106.914 27.5222 105.854 28.5507 104.453 29.2364C103.09 29.922 101.462 30.303 99.6069 30.303H94.0413V12.9326ZM99.4933 27.5222C101.424 27.5222 102.939 27.027 103.999 26.0366C105.059 25.0461 105.627 23.5605 105.627 21.5797C105.627 19.5989 105.097 18.1513 103.999 17.1228C102.939 16.1324 101.424 15.6372 99.4933 15.6372H97.108V27.5222H99.4933Z" fill="white"/>
<path d="M147.653 12.7041H150.569L156.93 30.0364H153.711L152.613 26.8746H145.609L144.549 30.0364H141.293L147.653 12.7041ZM151.667 24.2081L149.433 17.6562L149.092 16.7419L148.789 17.6562L146.518 24.2081H151.667Z" fill="#020203"/>
<path d="M60.5719 13.085H63.4873L69.848 30.4172H66.6298L65.5318 27.2555H58.5274L57.4673 30.4172H54.2112L60.5719 13.085ZM64.5853 24.589L62.3514 18.037L62.0107 17.1228L61.7078 18.037L59.4361 24.589H64.5853Z" fill="white"/>
<path d="M164.048 29.1603C162.722 28.3984 161.662 27.3699 160.867 25.9986C160.072 24.6272 159.693 23.1035 159.693 21.3512C159.693 19.599 160.072 18.0371 160.867 16.7039C161.662 15.3326 162.685 14.304 164.048 13.5422C165.373 12.8184 166.849 12.4375 168.44 12.4375C169.803 12.4375 171.052 12.6661 172.15 13.1613C173.248 13.6565 174.119 14.3421 174.838 15.2183C175.52 16.0944 176.012 17.1229 176.239 18.2657L176.125 18.4562L173.248 18.6847C172.945 17.58 172.339 16.742 171.506 16.1325C170.636 15.523 169.613 15.2183 168.364 15.2183C167.266 15.2183 166.281 15.4849 165.411 15.9801C164.578 16.5134 163.934 17.2372 163.48 18.1514C163.025 19.0657 162.798 20.1323 162.798 21.3512C162.798 22.5702 163.025 23.5987 163.48 24.551C163.934 25.4653 164.578 26.2271 165.448 26.7223C166.281 27.2556 167.266 27.4842 168.402 27.4842C169.613 27.4842 170.636 27.1794 171.468 26.5699C172.301 25.9605 172.869 25.1224 173.21 24.0177L176.05 24.2463L176.163 24.4367C175.709 26.2652 174.8 27.6746 173.437 28.7031C172.074 29.7317 170.37 30.265 168.364 30.265C166.849 30.265 165.411 29.9221 164.048 29.1603Z" fill="#020203"/>
<path d="M184.114 15.4087H179.76V12.7041H191.535V15.4087H187.181V30.0364H184.114V15.4087Z" fill="#020203"/>
<path d="M196.495 12.7041H199.562V30.0364H196.495V12.7041Z" fill="#020203"/>
<path d="M204.067 12.7041H207.399L211.185 24.4367L211.601 25.6176L212.018 24.4367L215.804 12.7041H219.136L213.267 30.0364H209.936L204.067 12.7041Z" fill="#020203"/>
<path d="M223.642 12.7041H234.508V15.4087H226.708V19.9798H233.864V22.7225H226.708V27.2937H234.773V29.9983H223.642V12.7041Z" fill="#020203"/>
</svg>
